<?xml version="1.0" encoding="UTF-8" standalone="no"?>
<!-- Created with Inkscape (http://www.inkscape.org/) -->

<svg
   xmlns:dc="http://purl.org/dc/elements/1.1/"
   xmlns:cc="http://creativecommons.org/ns#"
   xmlns:rdf="http://www.w3.org/1999/02/22-rdf-syntax-ns#"
   xmlns:svg="http://www.w3.org/2000/svg"
   xmlns="http://www.w3.org/2000/svg"
   xmlns:sodipodi="http://sodipodi.sourceforge.net/DTD/sodipodi-0.dtd"
   xmlns:inkscape="http://www.inkscape.org/namespaces/inkscape"
   width="270.17657"
   height="296.79379"
   viewBox="0 0 71.484218 78.526694"
   version="1.1"
   id="svg8"
   sodipodi:docname="logo-full.svg"
   inkscape:version="0.92.2 5c3e80d, 2017-08-06">
  <defs
     id="defs2" />
  <sodipodi:namedview
     id="base"
     pagecolor="#ffffff"
     bordercolor="#666666"
     borderopacity="1.0"
     inkscape:pageopacity="0.0"
     inkscape:pageshadow="2"
     inkscape:zoom="0.49497475"
     inkscape:cx="177.81348"
     inkscape:cy="76.143688"
     inkscape:document-units="mm"
     inkscape:current-layer="layer1"
     showgrid="false"
     units="px"
     inkscape:window-width="1680"
     inkscape:window-height="940"
     inkscape:window-x="0"
     inkscape:window-y="0"
     inkscape:window-maximized="0"
     fit-margin-top="10"
     fit-margin-left="10"
     fit-margin-right="10"
     fit-margin-bottom="10" />
  <metadata
     id="metadata5">
    <rdf:RDF>
      <cc:Work
         rdf:about="">
        <dc:format>image/svg+xml</dc:format>
        <dc:type
           rdf:resource="http://purl.org/dc/dcmitype/StillImage" />
        <dc:title></dc:title>
      </cc:Work>
    </rdf:RDF>
  </metadata>
  <g
     inkscape:label="Layer 1"
     inkscape:groupmode="layer"
     id="layer1"
     transform="translate(1.666972,-228.2474)">
    <path
       style="fill:#99e6ff;fill-opacity:0.98341232;stroke:#000000;stroke-width:2.3812499;stroke-linecap:round;stroke-linejoin:round;stroke-miterlimit:7;stroke-dasharray:none;stroke-opacity:1"
       d="m 48.446784,264.79226 12.724494,-6.71328 c 0.468785,7.85463 0.774729,19.70937 0,27.564 l -12.724494,-6.71239 z"
       id="path1001"
       inkscape:connector-curvature="0"
       sodipodi:nodetypes="ccccc" />
    <path
       style="fill:#99e6ff;fill-opacity:0.98341232;stroke:#000000;stroke-width:2.3812499;stroke-linecap:round;stroke-linejoin:round;stroke-miterlimit:7;stroke-dasharray:none;stroke-opacity:1"
       d="m 3.6754185,255.36671 c 14.9237885,-0.55093 29.8475765,-0.45509 44.7713655,0 0.654392,10.99648 0.852009,21.99295 0,32.98943 -14.923789,0.80996 -29.847577,0.42324 -44.7713655,0 -0.5389244,-10.99648 -0.9482921,-21.99295 0,-32.98943 z"
       id="path999"
       inkscape:connector-curvature="0"
       sodipodi:nodetypes="ccccc" />
    <path
       style="opacity:1;fill:#cccccc;fill-opacity:1;stroke:none;stroke-width:2.6242826;stroke-linecap:round;stroke-linejoin:round;stroke-miterlimit:3.70000005;stroke-dasharray:none;stroke-opacity:1"
       d="m 32.322551,243.70011 c 7e-6,3.25395 1.879635,6.6808 4.918581,8.81321 1.51947,1.06622 1.029479,2.77073 1.396218,5.73174 3.707303,-2.92335 4.353349,-2.30084 10.478253,-2.76137 11.604766,-0.87253 16.793041,-5.27568 16.793052,-11.78358 5e-6,-6.50789 -7.518499,-11.78361 -16.793052,-11.78361 -9.274549,0 -16.793058,5.27572 -16.793052,11.78361 z"
       id="path981"
       inkscape:connector-curvature="0"
       sodipodi:nodetypes="cscscsc" />
    <g
       id="g979"
       transform="matrix(0.13365039,0,0,0.11209712,20.170238,226.82079)"
       style="fill:#030303;fill-opacity:0.96682464">
      <g
         id="g922"
         style="fill:#030303;fill-opacity:0.96682464">
        <g
           id="g920"
           style="fill:#030303;fill-opacity:0.96682464">
          <path
             id="path918"
             d="M 129.26882,301.77157 V 240.20726 C 99.70644,218.12618 82.85714,186.38051 82.85714,152.42602 c 0,-64.01463 60.29454,-116.09645 134.40772,-116.09645 74.11317,0 134.40771,52.08182 134.40771,116.09581 0,64.01272 -60.29454,116.09582 -134.40771,116.09582 -8.78133,0 -17.62256,-0.7597 -26.32976,-2.26121 z M 217.26486,55.03514 c -64.14232,0 -116.32627,43.69 -116.32627,97.39024 0,29.11069 15.44915,56.49369 42.39097,75.11876 l 4.017,2.77682 v 39.62826 l 40.45226,-23.29059 3.21163,0.62169 c 8.65965,1.68041 17.49161,2.53531 26.25379,2.53531 64.14355,0 116.32627,-43.68808 116.32627,-97.39025 6.2e-4,-53.70024 -52.18149,-97.39024 -116.32565,-97.39024 z"
             style="fill:#030303;fill-opacity:0.96682464;stroke-width:0.62818897"
             inkscape:connector-curvature="0" />
        </g>
      </g>
      <g
         id="g924"
         style="fill:#030303;fill-opacity:0.96682464" />
      <g
         id="g926"
         style="fill:#030303;fill-opacity:0.96682464" />
      <g
         id="g928"
         style="fill:#030303;fill-opacity:0.96682464" />
      <g
         id="g930"
         style="fill:#030303;fill-opacity:0.96682464" />
      <g
         id="g932"
         style="fill:#030303;fill-opacity:0.96682464" />
      <g
         id="g934"
         style="fill:#030303;fill-opacity:0.96682464" />
      <g
         id="g936"
         style="fill:#030303;fill-opacity:0.96682464" />
      <g
         id="g938"
         style="fill:#030303;fill-opacity:0.96682464" />
      <g
         id="g940"
         style="fill:#030303;fill-opacity:0.96682464" />
      <g
         id="g942"
         style="fill:#030303;fill-opacity:0.96682464" />
      <g
         id="g944"
         style="fill:#030303;fill-opacity:0.96682464" />
      <g
         id="g946"
         style="fill:#030303;fill-opacity:0.96682464" />
      <g
         id="g948"
         style="fill:#030303;fill-opacity:0.96682464" />
      <g
         id="g950"
         style="fill:#030303;fill-opacity:0.96682464" />
      <g
         id="g952"
         style="fill:#030303;fill-opacity:0.96682464" />
    </g>
    <circle
       style="opacity:1;fill:#ff5151;fill-opacity:1;stroke:none;stroke-width:1.13979506;stroke-linecap:round;stroke-linejoin:round;stroke-miterlimit:10;stroke-dasharray:none;stroke-opacity:1"
       id="path1067"
       cx="43.32143"
       cy="283.77728"
       r="2.5" />
    <path
       inkscape:connector-curvature="0"
       id="path1069"
       d="m 19.640335,260.32318 18.79145,11.31815 -18.93041,10.58872 z"
       style="fill:#ffffff;fill-opacity:0.9478673;stroke:#000000;stroke-width:2.74666119;stroke-linecap:round;stroke-linejoin:round;stroke-miterlimit:3.70000005;stroke-dasharray:none;stroke-opacity:1" />
    <g
       aria-label="Co-VidSpeak"
       transform="matrix(0.26458333,0,0,0.26458333,-2.2771633,229.23443)"
       style="font-style:normal;font-weight:normal;font-size:40px;line-height:1.25;font-family:sans-serif;letter-spacing:0px;word-spacing:0px;fill:#000000;fill-opacity:1;stroke:none"
       id="flowRoot839">
      <path
         d="m 34.526041,249.60287 -0.747396,3.88281 q -1.75,-1.76823 -3.71875,-2.625 -1.950521,-0.85677 -4.229166,-0.85677 -3.117188,0 -5.486979,1.49479 -2.351563,1.49479 -4.065104,4.55729 -1.09375,1.96875 -1.677084,4.17448 -0.565104,2.1875 -0.565104,4.41146 0,3.71875 1.914063,5.66927 1.932291,1.95052 5.596354,1.95052 2.533854,0 4.867187,-0.80208 2.333333,-0.82032 4.539062,-2.44271 l -0.856771,4.35677 q -2.16927,0.92969 -4.393229,1.40364 -2.205729,0.47396 -4.429687,0.47396 -5.231771,0 -8.184895,-2.84375 -2.934896,-2.84375 -2.934896,-7.91146 0,-3.24479 1.111979,-6.3802 1.130208,-3.13542 3.226562,-5.72396 2.223959,-2.75261 5.067708,-4.06511 2.86198,-1.3125 6.653646,-1.3125 2.333333,0 4.411458,0.65625 2.096354,0.63802 3.901042,1.9323 z"
         style="font-style:italic;font-variant:normal;font-weight:normal;font-stretch:normal;font-size:37.33333206px;font-family:sans-serif;-inkscape-font-specification:'sans-serif, Italic';font-variant-ligatures:normal;font-variant-caps:normal;font-variant-numeric:normal;font-feature-settings:normal;text-align:start;writing-mode:lr-tb;text-anchor:start;fill:#6c6c6c;fill-opacity:1"
         id="path881" />
      <path
         d="m 44.16927,275.2513 q -3.591146,0 -5.6875,-2.20573 -2.078125,-2.22396 -2.078125,-6.05208 0,-2.22396 0.710938,-4.52083 0.729166,-2.31511 1.877604,-3.88282 1.804687,-2.4427 4.028645,-3.60937 2.223959,-1.16667 5.03125,-1.16667 3.481771,0 5.614583,2.16927 2.151042,2.16927 2.151042,5.66927 0,2.42448 -0.710937,4.83073 -0.710938,2.40625 -1.859375,3.99219 -1.786459,2.44271 -4.010417,3.60938 -2.223958,1.16666 -5.067708,1.16666 z m -4.283854,-8.36719 q 0,2.77084 1.148437,4.15625 1.166667,1.36719 3.518229,1.36719 3.372396,0 5.578125,-2.93489 2.223958,-2.95313 2.223958,-7.47396 0,-2.64323 -1.184895,-3.99219 -1.184896,-1.34896 -3.481771,-1.34896 -1.895833,0 -3.372396,0.89323 -1.476562,0.875 -2.643229,2.67969 -0.856771,1.34896 -1.330729,3.08073 -0.455729,1.73177 -0.455729,3.57291 z"
         style="font-style:italic;font-variant:normal;font-weight:normal;font-stretch:normal;font-size:37.33333206px;font-family:sans-serif;-inkscape-font-specification:'sans-serif, Italic';font-variant-ligatures:normal;font-variant-caps:normal;font-variant-numeric:normal;font-feature-settings:normal;text-align:start;writing-mode:lr-tb;text-anchor:start;fill:#6c6c6c;fill-opacity:1"
         id="path883" />
      <path
         d="m 59.335936,263.0013 h 9.825521 v 2.98959 h -9.825521 z"
         style="font-style:normal;font-variant:normal;font-weight:normal;font-stretch:normal;font-size:37.33333206px;font-family:sans-serif;-inkscape-font-specification:'sans-serif, Normal';font-variant-ligatures:normal;font-variant-caps:normal;font-variant-numeric:normal;font-feature-settings:normal;text-align:start;writing-mode:lr-tb;text-anchor:start"
         id="path885" />
      <path
         d="m 71.184893,247.50651 h 7.054688 l 7.218749,20.08854 7.200521,-20.08854 h 7.054687 l -10.080729,27.21615 h -8.367187 z"
         style="font-style:normal;font-variant:normal;font-weight:bold;font-stretch:normal;font-size:37.33333206px;font-family:sans-serif;-inkscape-font-specification:'sans-serif, Bold';font-variant-ligatures:normal;font-variant-caps:normal;font-variant-numeric:normal;font-feature-settings:normal;text-align:start;writing-mode:lr-tb;text-anchor:start"
         id="path887" />
      <path
         d="m 102.39323,254.30599 h 6.52604 v 20.41667 h -6.52604 z m 0,-7.94792 h 6.52604 v 5.32292 h -6.52604 z"
         style="font-style:normal;font-variant:normal;font-weight:bold;font-stretch:normal;font-size:37.33333206px;font-family:sans-serif;-inkscape-font-specification:'sans-serif, Bold';font-variant-ligatures:normal;font-variant-caps:normal;font-variant-numeric:normal;font-feature-settings:normal;text-align:start;writing-mode:lr-tb;text-anchor:start"
         id="path889" />
      <path
         d="m 129.15364,257.29557 v -10.9375 h 6.5625 v 28.36459 h -6.5625 v -2.95313 q -1.34896,1.80469 -2.97135,2.64323 -1.6224,0.83854 -3.75521,0.83854 -3.77344,0 -6.19792,-2.98958 -2.42448,-3.00781 -2.42448,-7.72917 0,-4.72135 2.42448,-7.71093 2.42448,-3.00782 6.19792,-3.00782 2.11458,0 3.73698,0.85677 1.64062,0.83855 2.98958,2.625 z m -4.30208,13.21615 q 2.09635,0 3.1901,-1.53125 1.11198,-1.53125 1.11198,-4.44792 0,-2.91666 -1.11198,-4.44791 -1.09375,-1.53125 -3.1901,-1.53125 -2.07813,0 -3.1901,1.53125 -1.09375,1.53125 -1.09375,4.44791 0,2.91667 1.09375,4.44792 1.11197,1.53125 3.1901,1.53125 z"
         style="font-style:normal;font-variant:normal;font-weight:bold;font-stretch:normal;font-size:37.33333206px;font-family:sans-serif;-inkscape-font-specification:'sans-serif, Bold';font-variant-ligatures:normal;font-variant-caps:normal;font-variant-numeric:normal;font-feature-settings:normal;text-align:start;writing-mode:lr-tb;text-anchor:start"
         id="path891" />
      <path
         d="m 161.2552,248.36328 v 5.76042 q -2.24218,-1.00261 -4.375,-1.51302 -2.13281,-0.51042 -4.02864,-0.51042 -2.51563,0 -3.71875,0.69271 -1.20313,0.69271 -1.20313,2.15104 0,1.09375 0.80209,1.71354 0.82031,0.60157 2.95312,1.03907 l 2.98958,0.60156 q 4.53907,0.91146 6.45313,2.77083 1.91406,1.85938 1.91406,5.28646 0,4.5026 -2.67969,6.70833 -2.66145,2.1875 -8.14843,2.1875 -2.58855,0 -5.19532,-0.49219 -2.60677,-0.49218 -5.21354,-1.45833 v -5.92448 q 2.60677,1.38542 5.03125,2.09636 2.44271,0.6927 4.70313,0.6927 2.29687,0 3.51823,-0.76562 1.22135,-0.76563 1.22135,-2.1875 0,-1.27604 -0.83854,-1.96875 -0.82031,-0.69271 -3.29948,-1.23958 l -2.71615,-0.60157 q -4.08333,-0.875 -5.97916,-2.78906 -1.87761,-1.91406 -1.87761,-5.15885 0,-4.06511 2.625,-6.25261 2.625,-2.1875 7.54688,-2.1875 2.24219,0 4.61198,0.34636 2.36979,0.32812 4.90364,1.0026 z"
         style="font-style:normal;font-variant:normal;font-weight:bold;font-stretch:normal;font-size:37.33333206px;font-family:sans-serif;-inkscape-font-specification:'sans-serif, Bold';font-variant-ligatures:normal;font-variant-caps:normal;font-variant-numeric:normal;font-feature-settings:normal;text-align:start;writing-mode:lr-tb;text-anchor:start"
         id="path893" />
      <path
         d="m 175.45572,271.76953 v 10.71875 h -6.52604 v -28.18229 h 6.52604 v 2.98958 q 1.34896,-1.78645 2.98959,-2.625 1.64062,-0.85677 3.77343,-0.85677 3.77344,0 6.19792,3.00782 2.42448,2.98958 2.42448,7.71093 0,4.72136 -2.42448,7.72917 -2.42448,2.98958 -6.19792,2.98958 -2.13281,0 -3.77343,-0.83854 -1.64063,-0.85677 -2.98959,-2.64323 z m 4.33855,-13.21614 q -2.09636,0 -3.22657,1.54948 -1.11198,1.53125 -1.11198,4.42968 0,2.89844 1.11198,4.44792 1.13021,1.53125 3.22657,1.53125 2.09635,0 3.1901,-1.53125 1.11198,-1.53125 1.11198,-4.44792 0,-2.91666 -1.11198,-4.44791 -1.09375,-1.53125 -3.1901,-1.53125 z"
         style="font-style:normal;font-variant:normal;font-weight:bold;font-stretch:normal;font-size:37.33333206px;font-family:sans-serif;-inkscape-font-specification:'sans-serif, Bold';font-variant-ligatures:normal;font-variant-caps:normal;font-variant-numeric:normal;font-feature-settings:normal;text-align:start;writing-mode:lr-tb;text-anchor:start"
         id="path895" />
      <path
         d="m 216.07031,264.45964 v 1.85937 H 200.8125 q 0.23698,2.29688 1.65885,3.44531 1.42188,1.14844 3.97396,1.14844 2.0599,0 4.21094,-0.60156 2.16927,-0.61979 4.44792,-1.85938 v 5.03125 q -2.31511,0.875 -4.63021,1.3125 -2.31511,0.45573 -4.63021,0.45573 -5.54167,0 -8.6224,-2.80729 -3.0625,-2.82552 -3.0625,-7.91146 0,-4.99479 3.00782,-7.85677 3.02604,-2.86198 8.3125,-2.86198 4.8125,0 7.6927,2.89844 2.89844,2.89844 2.89844,7.7474 z m -6.70833,-2.16927 q 0,-1.85938 -1.09375,-2.98959 -1.07552,-1.14844 -2.82552,-1.14844 -1.89584,0 -3.08073,1.07553 -1.1849,1.05729 -1.47656,3.0625 z"
         style="font-style:normal;font-variant:normal;font-weight:bold;font-stretch:normal;font-size:37.33333206px;font-family:sans-serif;-inkscape-font-specification:'sans-serif, Bold';font-variant-ligatures:normal;font-variant-caps:normal;font-variant-numeric:normal;font-feature-settings:normal;text-align:start;writing-mode:lr-tb;text-anchor:start"
         id="path897" />
      <path
         d="m 230.14322,265.53516 q -2.04166,0 -3.08073,0.6927 -1.02083,0.69271 -1.02083,2.04167 0,1.23958 0.82031,1.95052 0.83855,0.69271 2.31511,0.69271 1.84114,0 3.09896,-1.3125 1.25781,-1.33073 1.25781,-3.31771 v -0.74739 z m 9.97136,-2.46094 v 11.64844 h -6.58073 v -3.02605 q -1.3125,1.85938 -2.95313,2.71615 -1.64062,0.83854 -3.99218,0.83854 -3.17188,0 -5.15886,-1.84114 -1.96875,-1.85938 -1.96875,-4.8125 0,-3.59115 2.46094,-5.26823 2.47917,-1.67709 7.76562,-1.67709 h 3.84636 v -0.51041 q 0,-1.54948 -1.22136,-2.26042 -1.22135,-0.72917 -3.80989,-0.72917 -2.09636,0 -3.90104,0.41928 -1.80469,0.41927 -3.35417,1.25781 v -4.97656 q 2.09635,-0.51042 4.21094,-0.76563 2.11458,-0.27344 4.22916,-0.27344 5.52344,0 7.96615,2.1875 2.46094,2.16927 2.46094,7.07292 z"
         style="font-style:normal;font-variant:normal;font-weight:bold;font-stretch:normal;font-size:37.33333206px;font-family:sans-serif;-inkscape-font-specification:'sans-serif, Bold';font-variant-ligatures:normal;font-variant-caps:normal;font-variant-numeric:normal;font-feature-settings:normal;text-align:start;writing-mode:lr-tb;text-anchor:start"
         id="path899" />
      <path
         d="m 246.22135,246.35807 h 6.52605 v 15.44011 l 7.51041,-7.49219 h 7.58333 l -9.97135,9.36979 10.75521,11.04688 h -7.91146 l -7.96614,-8.51302 v 8.51302 h -6.52605 z"
         style="font-style:normal;font-variant:normal;font-weight:bold;font-stretch:normal;font-size:37.33333206px;font-family:sans-serif;-inkscape-font-specification:'sans-serif, Bold';font-variant-ligatures:normal;font-variant-caps:normal;font-variant-numeric:normal;font-feature-settings:normal;text-align:start;writing-mode:lr-tb;text-anchor:start"
         id="path901" />
    </g>
  </g>
</svg>
